# xmcd CD database file
# Copyright (C) 1993-1996 Ti Kan
#
# Track frame offsets:
# 150
# 21527
# 39282
# 54605
# 80995
# 108202
# 134745
# 155885
# 179462
# 208515
#
# Disc length: 2996 seconds
# Revision: 0
# Processed by: cddbd v1.4b41PL1 Copyright (c) Steve Scherf et al.
# Submitted via: CDSpectrumPro v3.2.327
#
DISCID=930bb20a
DTITLE=Stephen Fearing - Blue Line
DYEAR=1900
DGENRE=
TTITLE0=The Bells Of Morning
TTITLE1=Our Father And The Big Wheel Of Fortune
TTITLE2=Sarah's Song
TTITLE3=Race Of Fractions
TTITLE4=Little Child Eyes
TTITLE5=Blind Horses
TTITLE6=Blue Line
TTITLE7=Born In A Story
TTITLE8=Turn Out The Lights
TTITLE9=Jesse Meets His Future Wife Zee Mimms
EXTD=
EXTT0=
EXTT1=
EXTT2=
EXTT3=
EXTT4=
EXTT5=
EXTT6=
EXTT7=
EXTT8=
EXTT9=
PLAYORDER=
